Coordinates
version=1
nRows=4
nColumns=63
inDegrees=yes

Units are S.I. units (second, meters, Newtons, ...)
If the header above contains a line with 'inDegrees', this indicates whether rotational values are in degrees (yes) or radians (no).

endheader
time	pelvis_tilt	pelvis_list	pelvis_rotation	pelvis_tx	pelvis_ty	pelvis_tz	hip_flexion_r	hip_adduction_r	hip_rotation_r	knee_angle_r	knee_angle_r_beta	ankle_angle_r	subtalar_angle_r	mtp_angle_r	hip_flexion_l	hip_adduction_l	hip_rotation_l	knee_angle_l	knee_angle_l_beta	ankle_angle_l	subtalar_angle_l	mtp_angle_l	L5_S1_Flex_Ext	L5_S1_Lat_Bending	L5_S1_axial_rotation	L4_L5_Flex_Ext	L4_L5_Lat_Bending	L4_L5_axial_rotation	L3_L4_Flex_Ext	L3_L4_Lat_Bending	L3_L4_axial_rotation	L2_L3_Flex_Ext	L2_L3_Lat_Bending	L2_L3_axial_rotation	L1_L2_Flex_Ext	L1_L2_Lat_Bending	L1_L2_axial_rotation	L1_T12_Flex_Ext	L1_T12_Lat_Bending	L1_T12_axial_rotation	Abs_r3	Abs_r2	Abs_r1	Abs_t1	Abs_t2	neck_flexion	neck_bending	neck_rotation	arm_flex_r	arm_add_r	arm_rot_r	elbow_flex_r	pro_sup_r	wrist_flex_r	wrist_dev_r	arm_flex_l	arm_add_l	arm_rot_l	elbow_flex_l	pro_sup_l	wrist_flex_l	wrist_dev_l
      3.89200000	    -64.30338058	     -3.98267696	      7.15607580	     -0.31518130	      1.15196397	      0.02344137	     91.93034686	    -12.51539306	     -8.89922604	     53.83397534	      0.93958012	     -9.98765131	    -10.11210432	      0.00000000	    125.66329102	      2.23629900	     -1.52642284	     88.84890045	      1.55070585	     19.37957863	      2.91060303	      0.00000000	     -0.08625971	      0.84555344	     -1.20623543	     -0.16019291	      1.12458608	     -1.28162514	     -0.14171608	      2.05587864	     -1.28162514	     -0.09858622	      2.05587864	     -1.05545600	     -0.08010077	      1.72425258	     -0.98006628	     -0.04928880	      1.30976228	     -0.90467657	     -0.61614449	      9.56506967	     -6.70871956	      0.00000000	      0.00000000	      0.00000000	      0.00000000	      0.00000000	     68.10116277	     -8.66991415	     -3.42662325	     45.56414698	     66.96319487	      0.00000000	      4.99959340	     67.33610800	     -5.90324534	      4.31854871	     40.77543932	     65.87837899	      0.00000000	      4.99959340
      3.90000000	    -64.33433756	     -4.00694358	      6.90516668	     -0.31597407	      1.15191023	      0.02407368	     92.86508446	    -12.39161896	     -8.68099423	     56.51628327	      0.98639522	    -10.10064690	    -11.22318099	      0.00000000	    124.84059442	      2.19909319	     -1.52227342	     86.38835432	      1.50776122	     19.08599298	      2.27146536	      0.00000000	     -0.08671149	      0.85419263	     -1.18258836	     -0.16103190	      1.13607619	     -1.25650013	     -0.14245830	      2.07688395	     -1.25650013	     -0.09910256	      2.07688395	     -1.03476482	     -0.08052029	      1.74186960	     -0.96085304	     -0.04954694	      1.32314438	     -0.88694127	     -0.61937147	      9.66279782	     -6.57720168	      0.00000000	      0.00000000	      0.00000000	      0.00000000	      0.00000000	     68.34070247	     -8.41813752	     -3.45785597	     45.23976837	     67.01486506	      0.00000000	      4.99960325	     67.31385376	     -6.01231983	      4.06509840	     40.90041555	     65.88456621	      0.00000000	      4.99960325
      3.90800000	    -64.34327837	     -4.23065652	      6.21197766	     -0.31653740	      1.15149937	      0.02515948	     93.73054602	    -11.83668970	     -8.69609632	     59.12702533	      1.03196127	     -9.80340589	    -11.80194437	      0.00000000	    124.00859922	      1.90037366	     -0.98832002	     84.04986889	      1.46694695	     18.77759596	      2.04433156	      0.00000000	     -0.08633500	      0.89099254	     -1.06194767	     -0.16033273	      1.18502008	     -1.12831940	     -0.14183978	      2.16635927	     -1.12831940	     -0.09867227	      2.16635927	     -0.92920421	     -0.08017068	      1.81691199	     -0.86283248	     -0.04933182	      1.38014745	     -0.79646075	     -0.61668229	     10.07908583	     -5.90623435	      0.00000000	      0.00000000	      0.00000000	      0.00000000	      0.00000000	     68.48135001	     -8.29562610	     -3.49033840	     45.14682810	     67.02710330	      0.00000000	      4.99960628	     67.23064694	     -6.03855804	      3.99990304	     41.01753191	     65.88606310	      0.00000000	      4.99960628
      3.91700000	    -64.35990570	     -4.43916672	      5.53204219	     -0.31711478	      1.15115081	      0.02630296	     94.60895503	    -11.31790964	     -8.77472674	     61.65572317	      1.07609537	     -9.46481114	    -12.36374784	      0.00000000	    123.03574052	      1.55728373	     -0.52880263	     81.52532887	      1.42288541	     18.47271929	      1.82863435	      0.00000000	     -0.08755280	      0.92589535	     -0.94820644	     -0.16259431	      1.23144081	     -1.00746935	     -0.14384050	      2.25122194	     -1.00746935	     -0.10006410	      2.25122194	     -0.82968064	     -0.08130153	      1.88808579	     -0.77041773	     -0.05002767	      1.43421189	     -0.71115483	     -0.62538090	     10.47391333	     -5.27363977	      0.00000000	      0.00000000	      0.00000000	      0.00000000	      0.00000000	     68.65053236	     -8.13693458	     -3.49935636	     45.06027532	     67.03702691	      0.00000000	      4.99960842	     67.17148849	     -6.11002110	      3.91038176	     41.13082247	     65.88149511	      0.00000000	      4.99960842
